<svg xmlns="http://www.w3.org/2000/svg" viewBox="0 0 39 34"><path d="M0 17L9.75 0h19.5L39 17l-9.75 17H9.75L0 17z" fill="#141318"/><path fill-rule="evenodd" clip-rule="evenodd" d="M3.518 17l7.991 13.933h15.982L35.48 17 27.49 3.067H11.509L3.52 17zM9.75 0L0 17l9.75 17h19.5L39 17 29.25 0H9.75z" fill="#4B4E4E"/><path fill-rule="evenodd" clip-rule="evenodd" d="M25.646 10.384a.603.603 0 01.448.59V23.01c0 .23-.144.372-.183.409a.82.82 0 01-.401.202.644.644 0 01-.332-.023l-.012-.004-.012-.005c-1.128-.464-2.533-1.048-4.066-1.685-3.32-1.38-7.242-3.009-10.247-4.213l-.024-.01-.024-.013a.611.611 0 01-.291-.74.64.64 0 01.608-.436h10.326c.61-1.043 1.297-2.167 2.244-3.717l1.293-2.12.004-.006a.606.606 0 01.669-.265zm-.552 1.995l-.567.928a202.956 202.956 0 00-2.37 3.935l-.145.25H13.02c2.678 1.089 5.77 2.374 8.463 3.493 1.335.555 2.572 1.069 3.612 1.498V12.379z" fill="#4B4E4E"/></svg>